<svg width="120" height="120" viewBox="0 0 120 120" xmlns="http://www.w3.org/2000/svg">
  <defs>
    <!-- Multiple gradients for depth and complexity -->
    <linearGradient id="coverGradient" x1="0%" y1="0%" x2="100%" y2="100%">
      <stop offset="0%" style="stop-color:#4B5563;stop-opacity:1" />
      <stop offset="30%" style="stop-color:#374151;stop-opacity:1" />
      <stop offset="70%" style="stop-color:#6B7280;stop-opacity:1" />
      <stop offset="100%" style="stop-color:#4B5563;stop-opacity:1" />
    </linearGradient>
    
    <linearGradient id="spineGradient" x1="0%" y1="0%" x2="100%" y2="0%">
      <stop offset="0%" style="stop-color:#1F2937;stop-opacity:1" />
      <stop offset="50%" style="stop-color:#374151;stop-opacity:1" />
      <stop offset="100%" style="stop-color:#1F2937;stop-opacity:1" />
    </linearGradient>
    
    <linearGradient id="pagesGradient" x1="0%" y1="0%" x2="100%" y2="50%">
      <stop offset="0%" style="stop-color:#F9FAFB;stop-opacity:1" />
      <stop offset="50%" style="stop-color:#E5E7EB;stop-opacity:1" />
      <stop offset="100%" style="stop-color:#D1D5DB;stop-opacity:1" />
    </linearGradient>
    
    <linearGradient id="shadowGradient" x1="0%" y1="0%" x2="100%" y2="100%">
      <stop offset="0%" style="stop-color:#1F2937;stop-opacity:0.6" />
      <stop offset="100%" style="stop-color:#1F2937;stop-opacity:0.1" />
    </linearGradient>
    
    <linearGradient id="accentGradient" x1="0%" y1="0%" x2="100%" y2="100%">
      <stop offset="0%" style="stop-color:#9CA3AF;stop-opacity:1" />
      <stop offset="100%" style="stop-color:#6B7280;stop-opacity:1" />
    </linearGradient>
    
    <!-- Filter for embossed effect -->
    <filter id="emboss" x="-50%" y="-50%" width="200%" height="200%">
      <feGaussianBlur stdDeviation="0.5" result="offset-blur"/>
      <feOffset dx="0.5" dy="0.5" result="offset"/>
      <feFlood flood-color="#FFFFFF" flood-opacity="0.3"/>
      <feComposite in2="offset" operator="in"/>
      <feMerge> 
        <feMergeNode/>
        <feMergeNode in="SourceGraphic"/> 
      </feMerge>
    </filter>
  </defs>
  
  <!-- Drop shadow -->
  <ellipse cx="64" cy="108" rx="35" ry="8" fill="url(#shadowGradient)" opacity="0.4"/>
  
  <!-- Back book edge -->
  <rect x="20" y="22" width="8" height="75" rx="1" fill="#1F2937" opacity="0.8"/>
  
  <!-- Book spine with detailed segments -->
  <rect x="25" y="20" width="10" height="77" rx="2" fill="url(#spineGradient)"/>
  <rect x="26" y="25" width="8" height="3" rx="0.5" fill="#4B5563" opacity="0.7"/>
  <rect x="26" y="89" width="8" height="3" rx="0.5" fill="#4B5563" opacity="0.7"/>
  
  <!-- Main book cover with complex geometry -->
  <rect x="30" y="18" width="55" height="80" rx="4" fill="url(#coverGradient)" stroke="#2D3748" stroke-width="1.5"/>
  
  <!-- Inner cover details -->
  <rect x="33" y="21" width="49" height="74" rx="2" fill="none" stroke="#6B7280" stroke-width="0.8" opacity="0.6"/>
  
  <!-- Pages with realistic thickness -->
  <rect x="32" y="19" width="51" height="78" rx="3" fill="url(#pagesGradient)" opacity="0.95"/>
  
  <!-- Page stack effect -->
  <rect x="33" y="20" width="49" height="76" rx="2" fill="#FFFFFF" opacity="0.9"/>
  <rect x="34" y="21" width="47" height="74" rx="2" fill="#F9FAFB" opacity="0.95"/>
  
  <!-- Detailed text lines with varying lengths -->
  <g opacity="0.6">
    <line x1="38" y1="30" x2="75" y2="30" stroke="#4B5563" stroke-width="0.8"/>
    <line x1="38" y1="35" x2="72" y2="35" stroke="#4B5563" stroke-width="0.6"/>
    <line x1="38" y1="40" x2="77" y2="40" stroke="#4B5563" stroke-width="0.8"/>
    <line x1="38" y1="45" x2="69" y2="45" stroke="#4B5563" stroke-width="0.6"/>
    <line x1="38" y1="50" x2="74" y2="50" stroke="#4B5563" stroke-width="0.8"/>
    
    <line x1="38" y1="60" x2="76" y2="60" stroke="#6B7280" stroke-width="0.6"/>
    <line x1="38" y1="65" x2="71" y2="65" stroke="#6B7280" stroke-width="0.6"/>
    <line x1="38" y1="70" x2="73" y2="70" stroke="#6B7280" stroke-width="0.6"/>
    <line x1="38" y1="75" x2="68" y2="75" stroke="#6B7280" stroke-width="0.6"/>
    
    <line x1="38" y1="83" x2="77" y2="83" stroke="#4B5563" stroke-width="0.8"/>
    <line x1="38" y1="88" x2="70" y2="88" stroke="#4B5563" stroke-width="0.6"/>
  </g>
  
  <!-- Complex geometric emblem on cover -->
  <g filter="url(#emboss)">
    <!-- Outer geometric frame -->
    <polygon points="58,35 66,39 66,47 58,51 50,47 50,39" fill="none" stroke="url(#accentGradient)" stroke-width="1.5" opacity="0.8"/>
    
    <!-- Inner hexagonal pattern -->
    <polygon points="54,40 62,42 62,46 54,48 50,46 50,42" fill="url(#accentGradient)" opacity="0.7"/>
    
    <!-- Central element -->
    <circle cx="56" cy="44" r="4" fill="none" stroke="#8B9098" stroke-width="1.2" opacity="0.9"/>
    <circle cx="56" cy="44" r="2" fill="#A5A8B0" opacity="0.9"/>
    
    <!-- Connecting lines -->
    <line x1="50" y1="39" x2="54" y2="35" stroke="#9CA3AF" stroke-width="0.8" opacity="0.6"/>
    <line x1="66" y1="39" x2="62" y2="35" stroke="#9CA3AF" stroke-width="0.8" opacity="0.6"/>
    <line x1="66" y1="47" x2="62" y2="51" stroke="#9CA3AF" stroke-width="0.8" opacity="0.6"/>
  </g>
  
  <!-- Professional bookmark with texture -->
  <rect x="82" y="18" width="4" height="35" fill="url(#accentGradient)" opacity="0.9"/>
  <path d="M 82 53 L 86 53 L 84 58 Z" fill="url(#accentGradient)" opacity="0.9"/>
  <line x1="83" y1="22" x2="85" y2="22" stroke="#D1D5DB" stroke-width="0.5" opacity="0.7"/>
  <line x1="83" y1="48" x2="85" y2="48" stroke="#D1D5DB" stroke-width="0.5" opacity="0.7"/>
  
  <!-- Cover highlights for depth -->
  <rect x="30" y="18" width="55" height="3" rx="2" fill="#6B7280" opacity="0.4"/>
  <rect x="30" y="18" width="3" height="80" rx="2" fill="#9CA3AF" opacity="0.3"/>
</svg>